# xmcd
#
# Track frame offsets:
#	150
#	19643
#	34450
#	51987
#	94522
#	125927
#	144227
#	162898
#	180677
#	201311
#	233715
#	288491
#
# Disc length: 4465 seconds
#
# Revision: 0
# Processed by: cddbd v1.5.1PL2 Copyright (c) Steve Scherf et al.
# Submitted via: audiograbber 1.83.01
#
DISCID=ac116f0c
DTITLE=Joachim Olkusnik - Chamber and solo music
DYEAR=2002
DGENRE=
TTITLE0=Bagatelles for flute and harp - Misterioso e espanssione
TTITLE1=Bagatelles for flute and harp - Pastorale con malincolia
TTITLE2=Bagatelles for flute and harp - Capricioso concitato
TTITLE3=Epigrams for piano - Libero quesi improvisando
TTITLE4=Sequences for violin and piano - Veloce - Assonanto
TTITLE5=Sequences for violin and piano - Con moto - Espansivo
TTITLE6=Tre impressioni per pianoforte - Lento mesterioso
TTITLE7=Tre impressioni per pianoforte - Presto con fuoco
TTITLE8=Tre impressioni per pianoforte - Libero capricioso
TTITLE9=Elegy Pamieci odeszlych i odchodzacych w zapomnieniu for clarinet and t
TTITLE9=wo cellos
TTITLE10=Introduction, Arioso and Prest for violin, cello and piano
TTITLE11=Prelude and Passacaglia for organ
EXTD=
EXTT0=
EXTT1=
EXTT2=
EXTT3=
EXTT4=
EXTT5=
EXTT6=
EXTT7=
EXTT8=
EXTT9=
EXTT10=
EXTT11=
PLAYORDER=
